# xmcd
# 
# Track frame offsets:
#     150
#     16977
#     34257
#     55612
#     76063
#     97032
#     109775
#     125405
#     139661
#     152039
#     168421
#     198578
#     220563
#     237116
#     251495
#     269954
# 
# Disc length: 3962
# 
# Revision: 3
# Processed by: cddbd v1.5.2PL0 Copyright (c) Steve Scherf et al.
# Submitted via: fre:ac v1.0.31
# 
DISCID=d80f7810
DTITLE=Johnny Winter - True To The Blues - The Johnny Winter Story Disc 3
DYEAR=2014
DGENRE=Blues
TTITLE0=Still Alive And Well
TTITLE1=Rock Me Baby
TTITLE2=Rock and Roll
TTITLE3=Rollin' 'Cross The Country
TTITLE4=Hurtin' So Bad
TTITLE5=Bad Luck Situation
TTITLE6=Self Destructive Blues
TTITLE7=Sweet Papa John
TTITLE8=Rock and Roll People
TTITLE9=Harlem Shuffle (Live With Edgar Winter)
TTITLE10=Bony Moronie (Live)
TTITLE11=Roll With Me (Live)
TTITLE12=Tired Of Tryin'
TTITLE13=TV Mama
TTITLE14=Walkin' Thru The Park
TTITLE15=I Done Got Over It (Live With Muddy Waters and James Cotton)
EXTD=
EXTT0=
EXTT1=
EXTT2=
EXTT3=
EXTT4=
EXTT5=
EXTT6=
EXTT7=
EXTT8=
EXTT9=
EXTT10=
EXTT11=
EXTT12=
EXTT13=
EXTT14=
EXTT15=
PLAYORDER=
